PathFileType	4	(X/Y/Z)	C:\Users\86182\Documents\cortex\Trimmed_M1_H3.trc
DataRate	CameraRate	NumFrames	NumMarkers	Units	OrigDataRate	OrigDataStartFrame	OrigNumFrames
100.00	100.00	       70	2	mm	100.00	761	       951
Frame#	Time	gripper			box			
		X1	Y1	Z1	X2	Y2	Z2	

761	7.600	215.94318	201.28922	288.41647	205.57222	201.18214	157.07516	
762	7.610	215.97067	201.30228	288.40674	205.56844	201.17996	157.07791	
763	7.620	215.93205	201.28394	288.42041	205.56462	201.17757	157.08064	
764	7.630	215.90434	201.27078	288.43021	205.56104	201.17490	157.08313	
765	7.640	215.90434	201.27078	288.43021	205.55786	201.17213	157.08521	
766	7.650	215.90434	201.27078	288.43021	205.55545	201.16972	157.08661	
767	7.660	215.90434	201.27078	288.43021	205.55417	201.16815	157.08710	
768	7.670	215.90434	201.27078	288.43021	205.55444	201.16763	157.08649	
769	7.680	215.90434	201.27078	288.43021	205.55643	201.16806	157.08479	
770	7.690	215.90434	201.27078	288.43021	205.56004	201.16905	157.08231	
771	7.700	215.90434	201.27078	288.43021	205.56494	201.17003	157.07950	
772	7.710	215.90434	201.27078	288.43021	205.57062	201.17056	157.07684	
773	7.720	215.90434	201.27078	288.43021	205.57649	201.17055	157.07474	
774	7.730	215.90434	201.27078	288.43021	205.58177	201.17007	157.07349	
775	7.740	215.97067	201.30228	288.40674	205.58591	201.16936	157.07307	
776	7.750	215.90434	201.27078	288.43021	205.58881	201.16869	157.07321	
777	7.760	215.92650	201.28130	288.42239	205.59030	201.16826	157.07379	
778	7.770	215.90990	201.27342	288.42825	205.58974	201.16801	157.07503	
779	7.780	215.90434	201.27078	288.43021	205.58691	201.16768	157.07706	
780	7.790	215.90434	201.27078	288.43021	205.58246	201.16692	157.07959	
781	7.800	215.90434	201.27078	288.43021	205.57733	201.16574	157.08217	
782	7.810	215.90434	201.27078	288.43021	205.57236	201.16454	157.08438	
783	7.820	215.90434	201.27078	288.43021	205.56819	201.16377	157.08592	
784	7.830	215.89232	201.27240	288.43155	205.56522	201.16376	157.08659	
785	7.840	215.90434	201.27078	288.43021	205.56349	201.16460	157.08636	
786	7.850	215.90434	201.27078	288.43021	205.56311	201.16624	157.08530	
787	7.860	215.90434	201.27078	288.43021	205.56404	201.16841	157.08356	
788	7.870	215.86864	201.27557	288.43414	205.56590	201.17067	157.08162	
789	7.880	215.90434	201.27078	288.43021	205.56812	201.17255	157.08012	
790	7.890	215.90434	201.27078	288.43021	205.57021	201.17368	157.07947	
791	7.900	215.86864	201.27557	288.43414	205.57178	201.17389	157.07961	
792	7.910	215.90990	201.27342	288.42825	205.57239	201.17322	157.08031	
793	7.920	215.90434	201.27078	288.43021	205.57178	201.17195	157.08142	
794	7.930	215.90434	201.27078	288.43021	205.57004	201.17047	157.08281	
795	7.940	215.90434	201.27078	288.43021	205.56778	201.16896	157.08426	
796	7.950	215.90434	201.27078	288.43021	205.56601	201.16750	157.08537	
797	7.960	215.90434	201.27078	288.43021	205.56560	201.16605	157.08580	
798	7.970	215.90434	201.27078	288.43021	205.56693	201.16466	157.08537	
799	7.980	215.90434	201.27078	288.43021	205.56998	201.16344	157.08409	
800	7.990	215.92650	201.28130	288.42239	205.57463	201.16254	157.08195	
801	8.000	215.90434	201.27078	288.43021	205.58055	201.16214	157.07910	
802	8.010	215.90990	201.27342	288.42825	205.58676	201.16235	157.07596	
803	8.020	215.90434	201.27078	288.43021	205.59174	201.16316	157.07323	
804	8.030	215.90990	201.27342	288.42825	205.59422	201.16431	157.07152	
805	8.040	215.90434	201.27078	288.43021	205.59384	201.16528	157.07106	
806	8.050	215.90434	201.27078	288.43021	205.59091	201.16568	157.07175	
807	8.060	215.90434	201.27078	288.43021	205.58612	201.16527	157.07338	
808	8.070	215.90434	201.27078	288.43021	205.58029	201.16417	157.07579	
809	8.080	215.90990	201.27342	288.42825	205.57434	201.16254	157.07863	
810	8.090	215.93205	201.28394	288.42041	205.56934	201.16074	157.08139	
811	8.100	215.90434	201.27078	288.43021	205.56627	201.15936	157.08353	
812	8.110	215.90434	201.27078	288.43021	205.56592	201.15889	157.08450	
813	8.120	215.90434	201.27078	288.43021	205.56856	201.15948	157.08392	
814	8.130	215.90434	201.27078	288.43021	205.57387	201.16107	157.08168	
815	8.140	215.90434	201.27078	288.43021	205.58096	201.16356	157.07809	
816	8.150	215.90990	201.27342	288.42825	205.58876	201.16673	157.07361	
817	8.160	215.90990	201.27342	288.42825	205.59660	201.17036	157.06859	
818	8.170	215.90434	201.27078	288.43021	205.60432	201.17426	157.06326	
819	8.180	215.90434	201.27078	288.43021	205.61159	201.17833	157.05814	
820	8.190	215.92102	201.27869	288.42432	205.61772	201.18239	157.05397	
821	8.200	215.90990	201.27342	288.42825	205.62198	201.18599	157.05148	
822	8.210	215.92102	201.27869	288.42432	205.62360	201.18860	157.05104	
823	8.220	215.86864	201.27557	288.43414	205.62184	201.18971	157.05266	
824	8.230	215.90434	201.27078	288.43021	205.61682	201.18909	157.05588	
825	8.240	215.89232	201.27240	288.43155	205.60959	201.18686	157.05989	
826	8.250	215.90434	201.27078	288.43021	205.60153	201.18378	157.06383	
827	8.260	215.90434	201.27078	288.43021	205.59399	201.18086	157.06705	
828	8.270	215.90434	201.27078	288.43021	205.58798	201.17860	157.06921	
829	8.280	215.90434	201.27078	288.43021	205.58420	201.17693	157.07033	
830	8.290	215.90434	201.27078	288.43021	205.58270	201.17561	157.07062	
